<svg xmlns="http://www.w3.org/2000/svg" width="1330" height="496" viewBox="0 0 1330 496">
  <defs>
    <style>
      .cls-1 {
        fill: red;
      }

      .cls-1, .cls-2 {
        fill-rule: evenodd;
      }

      .cls-2 {
        fill: #fff;
      }
    </style>
  </defs>
  <path id="red" class="cls-1" d="M972,180c4.673,0.8,10.03,2.9,15,4h16c7.29,1.571,18,2.441,24,4,7.98,2.073,41.09.479,48-1l71-1c-0.29,30.588-47.48,46.9-73,54-7.04,1.959-22.64,3-31,1-11.54-2.756-20.25-9.742-30-13v2c-2.56,4.039.71,12.637,2,16,4.98,13.01,17.03,26.719,33,28v3c-6.6.725-12.89,5.1-18,7-7.53,2.794-16.13.118-23,0,0.37,2.076.24,1.924,1,3,5.99,6.028,15.85,4.8,26,7,20.06,4.352,64.38,2.907,81-4,4.26-1.771,6.85-6.958,10-10-1.52-4.968-3.75-4.931-4-12,2.99-1.337,5.16-4.5,8-6,27.82-14.652,46.66-23.488,58-55,3.42-9.511,6.44-27.539,2-39-2.23-5.753-7.9-8.092-12-12-14.89-.112-20.02,4.371-32,7l-100,5v-2c11.91-4.923,19.85-16.143,29-24,15.99-13.724,34.1-24.246,50-38,7.83-6.774,22.67-23.5,33-26,4.84,4.064,12.12,3.9,15,10-10.85,3.4-20.52,13.634-29,20-1.93,1.452-4.03.582-6,2-8.49,6.116-16.8,13.731-25,20-3.45,2.636-7.74,3.207-11,6-8.81,7.544-17.44,17.544-27,24,0.33,1,.67,2,1,3h4c6.75-5.834,15.89-8.493,24-13,7.73-4.295,15.75-11.091,23-16,9.47-6.409,19.6-9.6,29-16,8.58-5.834,21.75-19.239,34-20,3.28,6.138,11.29,9.158,16,14,9.87,10.141,25.74,43.406,30,59v11c6.64,30.9-4.51,57.777-16,74-5.62,7.934-8.48,17.094-15,24-1.3,1.376-3.46.745-5,2-1.66,1.354-2.4,4.539-4,6-2.98,2.722-6.78,3.432-10,6-7.49,5.975-14.62,15.08-23,20-17.39,10.213-41.15,16.87-63,22h-22c-40.55.155-72.08-11.953-97-30-4.983-3.609-13.322-3.925-18-8-2.393-2.084-2.878-5.567-5-8-0.838-.961-3.083-1.074-4-2-3.015-3.043-5.205-6.725-8-10h-2c-2.049-3.027.885-5.686,0-8-1.2-3.129-7.732-5.518-10-8-1.534-1.679-1.5-4.281-3-6-11.791-13.5-23.568-45.675-17-70,0.964-3.572-.526-7.579,1-10,3.363-7.155,9.826-4.671,10-16,2.785-3.987.123-7.577,1-10,2.057-8.163,10.183-17.141,16-22l-3-8c2.639-1.408,5.936-2.737,9-4,0.669-23.565,39.5-43.61,59-51v3c-5.553,2.372-14.159,8.711-15,16,2.418,1.3,2.833,1.8,7,2,6.05-8.779,18.38-9.462,29-14,18.18-7.769,48.31-15,74-9,9.14,2.135,31.27,3.039,35,9h-1c-3.55,7.355-19.69,17.693-26,24-25.02,24.988-53.12,45.759-76,73-18.8-.123-40.185,1.994-57,3C973.162,174.919,972.261,174.905,972,180ZM837,352h317c9.4,2.024,23.35-1.294,34,1,11.51,2.478,34.18,2.677,46,3v2c0.96,1.418.98,3.273,1,6a2.909,2.909,0,0,0-1,1c-75.97,8.5-163.28,4-245,4-179.675,0-348.307-6.767-526-7v-2l108-2c14.184,0,30.419.146,43-1,11.408-1.04,25.169,1.118,35-1h23c12.389,0,26.124-.632,37-1,10.726-.363,23.921.957,33-1h24l44-1C817.247,353,831.893,355.172,837,352ZM569,426H778l102,1c9.311,2,23.013.861,34,1,11.8,0.149,25.774,1,39,1h23c9.342,2.01,22.989.771,34,1,11.64,0.242,25.88,1,39,1h23c11,2.365,26.75-1.634,39,1,13.26,2.852,31.96.81,47,1,22.31,0.282,48.11.96,72,1v2c-1.75.631-.97,0.193-2,1-13.6-2.616-36.37-2.042-50,0-16.13,2.417-35.38-2.154-50,1-14.15,3.054-32.09-1.784-45,1h-22c-19.2,0-51.59-1.754-69,2l-147,2c-11.975,2.57-29.269,1-43,1H718c-87,0-177.495,1.759-259-4-1.533-2.464-2.291-2.276-3-6,3.624-3.436,5.181-4.222,13-4,3.945-2.4,11.558.175,17-1,16.215-3.5,40.033-2,58-2C550.819,427,564.242,428.948,569,426Z"/>
  <path id="white" class="cls-2" d="M316,42h5c2.567,3.871,6.326,6.166,8,11L268,184h80c2.2,2.088,3.689,1.716,5,5,6.829,11.217-9.94,11-19,11H261c-24.952,46.435-45.594,98.151-67,147-4.478,10.218-15.241,44.889-24,48-5.52,3.811-14.64-1.025-13-8,1.236-5.257,5.9-11.3,8-16,2.681-6.009,3.332-10.985,6-17q22.417-50.543,45-102c7.387-16.8,19.084-33.579,24-52h-4c-5.881,3.713-41.121,1.11-51,1-16.5,32.274-31.348,67.491-46,101-3.745,8.564-8.906,30.141-17,33-5.968,4.034-14.962-1.382-13-9,1.674-6.5,5.987-14.21,9-21,10.63-23.955,21.162-48.433,32-73,4.3-9.744,11.977-19.39,14-31h-1c-6.542,3.388-27.528.858-39,1-25.7.317-55.914,6.839-81,2-0.962-1.766-1.257-1.68-2-4-0.877-1.295-.894-2.467-1-5,1.514-1.411,2.209-2.764,4-4,6.053-4.518,30.513-2.414,41-3,27.624-1.543,58.443-3.017,87-3,7.567-17.639,17.368-35.715,25-53,5.045-11.427,8.342-22.158,14-33,2.75-5.27,16.96-24.977,23-10,1.049,1.549,1.031,4.085,1,7-7.191,5.325-8.807,15.557-13,24-6.405,12.9-11.938,26.19-18,40-3.521,8.021-9.5,16.044-12,25h45c2.15-1.438,7.308-1.113,11-1,14.57-33.4,32.439-66.021,47-99C301.291,70.752,305.825,52.568,316,42Zm830,143-58,1c-18.12,3.837-53.56,2.512-69-1-15.57-3.54-35.631,2.3-46-6-0.8-1.18-.773-1.681-1-4,13.231-7.184,41.99-5.213,61-6,15.94-25.444,42.04-41.507,64-61,16.23-14.413,30.51-31.848,48-45,6.23-4.682,21.64-18.939,28-21,8.6-2.784,12.82,2.894,13,10-13.15,8.154-24.58,19.934-36,30-11.57,10.2-24.6,18.785-37,28-10.39,7.718-19.47,18.405-30,26-5.13,3.7-10,6.246-15,10q-4.995,5.5-10,11c-4.78,3.493-11.76,5.044-14,11h20c7.38-4.557,25.8.224,36-2,14.15-3.085,34.73.634,49-3,5.06-1.288,10.28-5.5,15-7,15.92-5.062,23.64,10.305,26,20,1.23,5.049-.65,8.451-1,11v13c-6.09,23.9-21.85,40.139-40,52-9.05,5.913-28.5,7.884-29,22,2.16,1.889,3.81,3.87,3,6-5.4,15.808-65.13,18.888-87,14-10.85-2.425-26.26.079-30-9h1v-1c10.84,2.4,37.21-2.552,41-9h-1c-3.34-2.574-8.23-2.7-12-5-13.42-8.2-23.71-18.487-24-40a14.134,14.134,0,0,1,4-1c4.99,5.286,11.01,6.4,19,9,32.47,10.56,59.13-4.235,81-16,8.53-4.587,18.63-6.512,24-14C1143.35,201.933,1146.08,195.431,1146,185Zm72-128c2.72-.007,4.6.039,6,1,4.62,1.559,4.33,4.793,4,11-35.21,24.359-72.26,45.846-109,69-9.91,6.248-32.43,23.706-45,25-0.33-1-.67-2-1-3,6.48-4.168,10.84-11.464,17-16,24.95-18.364,50.09-36.823,76-54,11.2-7.425,22.08-15.139,33-22C1205.43,63.958,1213.48,62.856,1218,57ZM743,101h9v2c-3.8,2.409-2.233,16.981-2,23h21c0.411,15.98,1.043,58.283-9,62-3.876,2.579-9.314,1.16-16,1q-0.5-3-1-6c6.581,0.009,8.9.184,14,0,1.225-2.281,1.638-2.251,2-6,4.334-6.75,3.084-33.781,3-45H750c-0.284,15.489-3.575,33.531-10,44-2.937,4.785-7.857,8.405-11,13h-1v-1c-2.506-1.137-3.754-1.426-5-4,13.681-9.084,19.1-30.376,20-52H731v-6h12V101Zm79,3,11,1v1c-3.679,2.18-3.3,6.03-3,12h2c2.325-1.554,20.306-3.345,21-3,0.778,1.065,1.489,3.692,2,5h-2c-4.705,3.32-17.077,3.761-24,4q-1,14.5-2,29c-1.5,5.607-6.673,9.656-8,15-1.3,5.226.971,7.672,4,9,7.323,5.763,36.724.776,44-1,2.484-3.742,4.53-4.736,5-11-3.813-5.4-6.8-11.716-10-17,3.024-.736,3.527-1.464,7-2,5.986,9.736,12.345,15.6,9,30-15.795,10.476-39.39,11.314-62,6-1.315-2.254-5.058-5.714-5-9,0.025-1.41,3.361-4.977,2-7h-2c-4.4,3.059-11.675-1.261-13-5-6.683-6.672-1.135-20.716,6-23,4.76-4.58,10.932-2.086,17-1-0.344-2.065-.034-8.166,0-13l-22,1a18.324,18.324,0,0,1-1-6l24-1V104Zm-91,3v6H687v12h1c4.8-3.051,30.967-1.113,39-1a18.324,18.324,0,0,1,1,6H706v14h20c-0.36,14.356-2.209,30.267-5,42-4.416,2.571-9.117,3.131-17,3v-1h-1a12.662,12.662,0,0,0-1-4h12c1.225-2.281,1.638-2.251,2-6,3.764-5.819,3.071-20.5,3-29-2.816.264-12.383,0.629-13,1-2.7,4.253-1.316,10.463-3,16-2.856,9.391-8.232,15.9-13,23h-1v-1c-2.542-1.287-2.872-1.1-4-4,12.942-8.791,14.091-32.18,14-54H687c0.441,15.071-.521,53.277-10,58-1.732-1.724-2.783-1.5-4-4,10.476-11.219,7.076-53.728,7-76C693.034,103.654,715.821,106.914,731,107Zm129,16c11.586,0.556,21.36,4.6,31,7v2c-2.184,2.211-1.142,3-5,4-6.71-5.668-20.645-2.739-28-8A11.725,11.725,0,0,0,860,123Zm-49,17c-1.18.8-1.681,0.773-4,1l-5,6c-0.251,6.16-.17,6.845,1,12,3.15,1.426,5.754,2.023,11,2,3.687-5.429,6.1-6.86,6-17-2.072-1.283-2.3-2.077-5-3C813.82,140.2,813.319,140.227,811,140ZM628,296c0.458-7.124,4.356-11.678,7-17h-2c-5.441,5.075-13.67,6.8-21,10-22.834,9.981-76.611,35.056-94,1-1.754.631-.972,0.193-2,1-6.237,2.167-10.8,7.724-16,11-9.067,5.714-19,10.55-28,16-6.675,4.042-17.584,5.859-22,12-6.966,9.685-8.825,22.81-15,33-14.227,23.479-32.933,58.209-54,74-10.731,8.043-39.943,27.228-62,19-6.765-2.524-9.461-8.3-14-13-0.579-26.226,16.609-42.652,33-55,3.544-2.67,6.4-7.329,10-10,15.467-11.464,30.944-23.309,47-34,23.91-15.92,45.489-20.728,54-53h-2c-3.956,5.816-28.167,20.076-38,13-13.775-4.537-6.145-17.862-12-22-11.379,11.581-51.036,24.109-69,11-3.14-2.292-6.879-8.964-8-13-1.411-5.082,1.75-9.374-2-12a62.876,62.876,0,0,1-51,18c-3.985-5.791-6.194-6.88-6-18,4.392-5.66,6.78-12.335,11-18,8.88-11.921,26.888-21.563,43-26,12-3.305,27.834-.9,31,8,0.752,1.073.6,0.946,1,3-3.417,3.763-2.345,5.917-10,6-2.831,1.037-7.511-3.509-14-2-18.844,4.383-35.315,15.371-43,31h2c3.662-2.986,8.835-3.433,13-6,9.109-5.613,17.715-14.883,28-19,5.45-2.182,13.581-.786,16,3,3.091,4.838-.1,14.049-1,18-1.34,5.894,1.161,10.833,2,15,14.74,3.8,25.261-2.07,36-7,10.777-4.947,22.522-9.175,32-16,3.416-2.46,5.428-8.571,8-12,9.408-12.542,25.547-18.2,47-16l12,14c2.384-2.9,7.95-2.849,9-2a15,15,0,0,1,7,10c-7,7.487-22.967,38.043-26,49h1c3.579-3.184,9.818-3.424,14-6,8.08-4.977,17.25-11.074,25-17,2.943-2.25,2.659-6.085,5-9,1.334-1.661,4.454-.558,6-2,3.475-3.242,3.488-12.949,6-17,6.2-10,14.355-16.115,27-20,4.92-1.512,13.706-3.292,20-1,5.916,2.154,8.871,7.095,13,11,2.062,27.035-20.837,42.283-44,47,1.021,0.8.274,0.355,2,1,10.385,9.361,35.6-1.471,44-5,15.6-6.553,29.749-13.687,44-20,5.764-2.553,14.765-3.752,19-8,4.009-4.022,5.316-12.871,8-18,4.57-8.732,10.67-16.088,17-23h6c2.2,2.088,3.689,1.716,5,5,0.961,1.418.976,3.273,1,6a47.432,47.432,0,0,0-11,18h2c3.444-4.521,11.44-4.47,18-3,1.465,2.31,4.18,4.164,5,7,1.644,5.689-2.478,9.827,0,14,6.787-10.711,55.8-46.444,57-9l-7,19c-7.787,15.635-16.885,31.445-25,47-3.8,7.289-7.274,20.939-15,24-6.882,5.089-13.236-1.934-13-9,11.459-14.193,17.355-34.361,26-51,4.594-8.841,12.127-18.1,14-29h-1c-4.024,4.978-11.851,8.121-17,12-9.73,7.33-15.4,19.478-24,28-1.713,1.7-4.336,2.241-6,4a50.073,50.073,0,0,1-11-1c-1.283-2.072-2.077-2.3-3-5-3.086-4.769,3.451-21.872,4-29h-1c-5.981,9.342-16.438,15.893-23,25-3.069,4.26-4.228,10.447-10,12C639.7,296.6,633.392,296.052,628,296Zm147-11c2.076-.372,1.924-0.242,3-1,8.161-2.644,11.039-9.493,17-14,10.228-7.733,19.967-16.977,29-26,4.854-4.849,10.366-13.363,18-15,2.542,3.916,7.091,7.491,11,10v1h-1c-7.993,16.406-24.075,29.178-27,50a18.068,18.068,0,0,1,4,3c30.4,0.422,45.4-16.214,63-29,7.15-5.193,10.578-12.864,22-14,1.626,1.563,3.572,2.178,5,4,1.48,1.906,1.85,3.319,1,5-1.8,8.783-12.722,13.362-19,18-15.022,11.1-49.767,43.874-81,30-4.347-1.931-11.462-8.333-13-13-1.135-3.443.469-7.586-1-10-6.938,10.377-19.318,17.14-37,17-3.938-3.634-8.1-4.073-10-10-3.118-3.87-2.612-15.362-1-21,3.789-13.249,18.242-50.162,29-54,6.571-4.77,13.044,2.462,13,9C789.032,236.64,775.743,263.69,775,285ZM555,244a19.54,19.54,0,0,1-4,2c1.647,2.825,2.611,3.424,3,8-3.952,4.05-8.916,9.347-12,14h3c7.538-9.266,14.155-7.78,20-22C562.194,244.487,560.036,243.957,555,244Zm-111,1c-11.92,11.481-26.689,22.141-27,45h2c9.886-9.056,36.493-21.179,41-34-1.7-1.941-.527-3.292-2-6l-6-5h-8ZM420,348c-9.581,9.574-23.782,15.122-35,23a315.1,315.1,0,0,0-41,35c-8.605,8.605-20.63,16.423-21,33l3,1c9.97,6.2,29.091-6.726,34-10,27.661-18.447,47.268-50.934,62-82h-2Zm46,63v-3c3.5-.4,4.912-1.257,8-2l1-3h1v-1h-1c-1.554-3.789-8.052-7.323-11-10q1-2.5,2-5c3.282-1.762,7.617-5.507,11-4h1v2c-4.9.868-8.094,1.824-9,7,4.624,2.426,10.356,4.309,11,11-0.8,1.021-.355.274-1,2C474.732,407.758,472.886,410.462,466,411Zm61-29c0.462,11.518.64,23.512-7,27-3.3,3.074-11.344,2.056-16,1-5.665-8.551-6.171-11.967-6-27h5v1c-2.889,4.358-.36,13.941,0,19,2.2,1.664,2.026,2.836,5,4,3.748,2.579,8.741-.061,12-1l3-8c1.2-4.712-1.016-13.293,0-15C524.179,382.2,524.681,382.227,527,382Zm20,29v-3c5.744-.425,8.789-1.668,9-8-4.9-2.076-9.916-3.922-11-10,0.8-1.021.355-.274,1-2,3.265-2.08,8.225-6.686,12-5h1v2c-4.9.868-8.094,1.824-9,7,3.336,1.9,8.484,4.125,10,8,0.752,1.073.6,0.946,1,3-2.519,2.44-3.164,4.66-7,6C552.105,410.521,550.41,410.789,547,411Zm34-29h4v13h21V382h4v29h-4V397l-21,1v13h-4V382Zm56,0v29c-2.076-.372-1.924-0.242-3-1-3.143-4.884-1.133-19.947-1-27h1v-1h3Zm56,0c4.5,1.844,17.278,22.574,19,28-1.754.631-.972,0.193-2,1-1.754-.631-0.971-0.193-2-1-6.728-7.079-2.746-9.443-18-9-1.18.8-1.681,0.773-4,1q-2.5,4.5-5,9c-1.754-.631-0.971-0.193-2-1-0.752-1.073-.6-0.946-1-3C682.153,403.652,691.385,387.734,693,382Zm66,0q-0.5,14.5-1,29h-1c-3.891-5.866-18.6-18.7-25-22v22h-4q0.5-14.5,1-29h2c2.91,4.353,19.123,19.271,24,21V383h1v-1h3Zm22,0c13.78-.491,28.065.972,28,15-7.379,7.731-12.871,13.716-28,14V382Zm70,0c8.888-.274,18.3.45,19,9-2.338,2.123-4.858,4.7-6,8l10,9v1h-1q-0.5,1-1,2c-5.73-2.04-8.9-9.084-13-13,2.186-2.59,7.887-5.518,6-9-1.295-2.468.429-.681-2-2-2.038-1.883-3.835-2-8-2v26h-4V382Zm51,0c9.111,4.587,11.066,19.81,19,26v1h-1q-0.5,1-1,2h-2c-3.981-7.56-5.486-10.487-18-10-1.295.877-2.467,0.894-5,1-0.867,3.605-2.523,5.986-4,9-1.754-.631-0.971-0.193-2-1-2.468-1.3-.681.429-2-2C890.544,404.412,900.043,388.065,902,382Zm110,0v3h-10v11h2c1.55-1.049,4.09-1.031,7-1v3h-9v10h11v3H998V383Zm51,0q-0.495,14.5-1,29h-1c-3.11-4.76-19.68-20.115-25-22v22h-4q0.495-14.5,1-29h2c2.91,4.353,19.12,19.271,24,21V383a2.909,2.909,0,0,0,1-1h3Zm45,0a40.939,40.939,0,0,1,15,3,21.619,21.619,0,0,1,1,7c-2.06,1.224-2.91,1.648-4,4,15.08,3.459-.55,15.583-12,15V382Zm48,0c4.66,1.908,17.23,22.436,19,28-1.75.631-.97,0.193-2,1-1.75-.631-0.97-0.193-2-1-6.91-7.724-2.91-9.534-19-9-0.77.682-2.23,1.311-3,2q-2.505,4-5,8l-3-1v-3C1146.56,402.62,1153.96,389.26,1156,382Zm41,3c0.03,10.508,0,15.223,0,25a14.134,14.134,0,0,1-4,1c-1.83-5.38-1.08-14.972-1-22,0.83-1.66.24-2.585,0-6a18.289,18.289,0,0,1,6-1c4.6,2.658,9.5.051,12,5,0.88,1.3.89,2.467,1,5-2.17,2.015-3.1,3.491-6,5,3.03,4.547,8.03,7.437,10,13-1.75.631-.97,0.193-2,1h-2c-1.96-5.7-7.8-9.242-11-14,4.05-1.874,6.52-3.329,7-9-0.67-.333-1.33-0.667-2-1C1202.93,385.336,1200.84,385.09,1197,385ZM975,411c-0.915-7.147-5.138-14.02-8-20-5.393,4-6.817,13-13,16-1.107-4.645-6.014-14.062-10-16-1.022,5.748-4.245,18.75-10,20v-1h-1l11-27h1v1c1.973,2.15,10.567,17.1,11,16,4.264-4.173,8.231-10.5,11-16h1v1c2.681,2.786,11.065,22.562,10,25C976.927,410.752,977.054,410.6,975,411ZM785,385v22c7.32-.031,9.634-2.468,15-4,2.171-3.4,4.215-4.873,5-10-0.682-.771-1.311-2.232-2-3C799.3,386.2,792.387,385.056,785,385Zm327,0v10c3.48-.454,4-1.207,7-2a18.3,18.3,0,0,0,1-6l-3-1C1115.71,385.123,1114.53,385.106,1112,385ZM700,399v-3c-2.946-2.446-3.3-6.211-7-8-1.132,4.547-3.609,6.834-5,11h12Zm202-11c-1.282,4.194-3.747,6.5-5,11h12v-2C906.4,394.157,905.672,389.825,902,388Zm261,11v-3c-2.62-2.116-3.62-5.662-6-8v1c-2.84,2.265-4.4,6.572-6,10h12Zm-51-2v11l6-1c1.71-2.725,2.54-2.5,3-7-2.28-1.225-2.25-1.638-6-2C1113.93,397.248,1114.05,397.4,1112,397Z"/>
</svg>
